<svg height="28" viewBox="0 0 30 28" width="30" xmlns="http://www.w3.org/2000/svg"><path d="m1185 105c0-.182742.01015-.416242.03046-.700508.0203-.284265.13198-.730961.33502-1.340101.20305-.60914.47208-1.091369.80711-1.446701.33503-.355331.98984-.736038 1.96447-1.142132.97462-.406093 2.07106-.8324847 3.28934-1.2791874 1.21828-.4467028 2.13197-.8121813 2.74111-1.0964467.73097-.3654841 1.28934-.9137019 1.67513-1.6446701.38579-.7309681.58883-1.4720774.60914-2.2233502 0-.5482261-.31472-1.1776614-.94417-1.8883249-.36548-.426398-.6802-1.0253768-.94416-1.7969543-.8934-.365484-1.3401-1.0964412-1.3401-2.1928934 0-.8324915.15228-1.4314702.45685-1.7969543-.08122-.5482261-.17259-1.3604007-.27411-2.4365482l-.06091-.6395939c-.02031-.2639607 0-.7106568.06091-1.3401015.06092-.6294448.2132-1.1675105.45685-1.6142132.38579-.6700541.86295-1.1269024 1.43148-1.3705584s1.04568-.2944169 1.43147-.1522843h.03046c.0203-.1015233.06091-.2335017.12182-.395939.06092-.1624374.20305-.3857854.4264-.6700508s.47715-.487309.76142-.6091371c.16244-.0812186.41624-.1421317.76142-.1827411.34518-.0406093.78172-.0507615 1.30965-.0304568.52792.0203046 1.05583.1015221 1.58375.2436548s1.07614.3553285 1.64467.6395939 1.06599.6700483 1.49239 1.1573604.78172 1.0862909 1.06599 1.7969543c.28426.7106635.43655 1.5634468.45685 2.5583756v.6091371c-.08122.9137101-.17259 1.7258848-.27411 2.4365482.28426.3654841.42639.9644628.42639 1.7969543 0 1.0964522-.44669 1.8274094-1.3401 2.1928934-.26396.7715775-.57868 1.3705563-.94416 1.7969543-.62944.7106635-.94416 1.3400988-.94416 1.8883249 0 .7715774.20304 1.5126868.60914 2.2233502.40609.7106635.96446 1.2588814 1.67512 1.6446701.58884.30457 1.50253.6700486 2.74112 1.0964467 1.23858.426398 2.34517.8527897 3.3198 1.2791874.97462.426398 1.62436.802029 1.94923 1.126904.36549.345179.6396.81218.82234 1.401015.18274.588836.28426 1.086293.30457 1.492386l.03046.609137z" fill="#111" fill-rule="evenodd" transform="translate(-1185 -77)"/></svg>