<svg height="28" viewBox="0 0 28 28" width="28" xmlns="http://www.w3.org/2000/svg"><path d="m1358 84h-4v-.28125c0-4.28125-3.4375-7.71875-7.71875-7.71875h-.5c-4.28125 0-7.78125 3.4375-7.78125 7.71875v.28125h-4l-2 20h28zm-18-.28125c0-3.16875 2.6125-5.71875 5.78125-5.71875h.46875.03125c3.16875 0 5.71875 2.55 5.71875 5.71875v.28125h-12zm-5.7625 18.28125 1.55625-16h2.20625v2.26875c-.6.34375-1 .99375-1 1.73125 0 1.10625.89375 2 2 2s2-.89375 2-2c0-.7375-.4-1.3875-1-1.73125v-2.26875h12v2.26875c-.6.34375-1 .99375-1 1.73125 0 1.10625.89375 2 2 2s2-.89375 2-2c0-.7375-.4-1.3875-1-1.73125v-2.26875h2.2125l1.55625 16z" fill="#111" transform="translate(-1332 -76)"/></svg>