<svg height="18" viewBox="0 0 17 18" width="17" xmlns="http://www.w3.org/2000/svg"><path d="m969 289.199844v-3.399948h-1.894792c-.150521-.63749-.39401-1.239564-.71276-1.792941l1.319271-1.314824-2.403907-2.403869-1.288281 1.288261c-.557812-.34088-1.16875-.597647-1.819531-.765874v-1.810649h-3.4v1.810649c-.650781.168227-1.261719.429421-1.819531.765874l-1.288281-1.288261-2.403907 2.403869 1.319271 1.314824c-.31875.553377-.557812 1.155451-.71276 1.792941h-1.894792v3.399948h1.952344c.168229.606501.420573 1.177586.739323 1.708828l-1.403386 1.403364 2.403907 2.403869 1.429947-1.429926c.517969.301037 1.084636.526815 1.677865.681761v2.036427h3.4v-2.036427c.597656-.154946 1.159896-.380724 1.677865-.681761l1.429947 1.429926 2.403907-2.403869-1.398959-1.403364c.31875-.526815.571094-1.0979.739323-1.708828zm-8.5.68176c-1.314844 0-2.377344-1.066911-2.377344-2.381734 0-1.314824 1.0625-2.381735 2.377344-2.381735s2.381771 1.066911 2.381771 2.381735c0 1.314823-1.066927 2.381734-2.381771 2.381734z" fill="#111" transform="translate(-952 -279)"/></svg>