<svg height="21" viewBox="0 0 16 21" width="16" xmlns="http://www.w3.org/2000/svg"><path d="m968.894444 231.73125c-.05-.120312-.111111-.235156-.194444-.333594l-4.655556-5.014844c-.105555-.114843-.233333-.196875-.372222-.267968-.161111-.082031-.338889-.114844-.527778-.114844h-8.883333c-.688889 0-1.261111.579688-1.261111 1.307031v18.33125c0 .732813.572222 1.361719 1.261111 1.361719h13.505556c.688889 0 1.233333-.628906 1.233333-1.361719v-13.349219c0-.196875-.027778-.388281-.105556-.557812zm-13.227777.514063c0-.082032.1-.114844.188889-.114844h3.933333c.088889 0 .155555.032812.155555.114844v.590625c0 .076562-.061111.169531-.155555.169531h-3.933333c-.088889 0-.188889-.092969-.188889-.169531zm0 7c0-.082032.1-.114844.188889-.114844h6.788888c.088889 0 .133334.032812.133334.114844v.590625c0 .076562-.038889.169531-.133334.169531h-6.788888c-.088889 0-.188889-.092969-.188889-.169531zm8.888889 4.090625c0 .076562-.038889.169531-.133334.169531h-8.566666c-.088889 0-.188889-.092969-.188889-.169531v-.590625c0-.082032.1-.114844.188889-.114844h8.566666c.088889 0 .133334.032812.133334.114844zm1.777777-7c0 .076562-.038889.169531-.133333.169531h-10.344444c-.088889 0-.188889-.092969-.188889-.169531v-.590625c0-.082032.1-.114844.188889-.114844h10.344444c.088889 0 .133333.032812.133333.114844zm-2.605555-4.150782c-.311111 0-.616667-.284375-.616667-.617969v-3.609375l3.955556 4.227344z" fill="#111" transform="translate(-953 -226)"/></svg>