<svg height="28" viewBox="0 0 24 28" width="24" xmlns="http://www.w3.org/2000/svg"><path d="m1.4 28h21.2c.76875 0 1.4-.61875 1.4-1.38125v-13.24375c0-.7625-.625-1.375-1.4-1.375h-1.35v-1.93125c0-2.59375-1.0125-5.475-2.6625-7.2125-1.64375-1.7375-4-2.85625-6.58125-2.85625-.00625 0-.00625 0-.00625 0h-.00625c-2.58125 0-4.9375 1.11875-6.58125 2.85-1.65 1.7375-2.6625 4.61875-2.6625 7.2125v1.9375h-1.1875-.1625c-.775 0-1.4.61875-1.4 1.375v13.24375c0 .7625.625 1.38125 1.4 1.38125zm4.6625-17.93125c0-1.70625.61875-3.81875 1.75625-5.01875v-.01875c1.1-1.1625 2.61875-1.84375 4.175-1.84375h.00625.00625c1.55625 0 3.075.68125 4.175 1.84375v.0125l-.00625.00625c1.14375 1.2 1.75625 3.3125 1.75625 5.01875v1.93125h-1.09375-9.6875-1.0875z" fill="#111"/></svg>